#!OML:ASF I:\Actors\actors\Patient Classification 2\Patient 1\Session 1\actor1.ASF
:FULLY-SPECIFIED
:DEGREES
485
root -0.642301 18.6227 6.05368 -1.04787 -3.50495 -2.34947
lowerback 3.08181 1.41248 -0.98468
upperback -1.34315 1.85634 0.490601
thorax -3.15578 0.950258 0.948384
lowerneck -13.0495 -1.69646 0.175655
upperneck 17.8456 -2.59255 1.0934
head 7.66332 -1.12106 0.0611147
rclavicle -2.62147e-015 6.36111e-015
rhumerus -51.0506 -3.42526 -84.5381
rradius 53.5394
rwrist 8.27303
rhand -3.71229 -38.2426
rfingers 7.12502
rthumb 22.0302 -67.0078
lclavicle -2.62147e-015 6.36111e-015
lhumerus -42.4739 6.29817 85.3902
lradius 40.6488
lwrist -12.0977
lhand -6.56415 -25.1673
lfingers 7.12502
lthumb 19.29 3.89594
rfemur 0 0 0
rtibia 0
rfoot 0 0
rtoes 0
lfemur -0.634383 -6.6075 -13.1106
ltibia 21.9908
lfoot -24.9548 14.1837
ltoes -54.7408
486
root -0.642262 18.6201 6.05185 -1.15263 -3.65855 -2.2386
lowerback 2.99945 1.37321 -1.09437
upperback -1.31807 1.79944 0.473022
thorax -3.08497 0.923516 0.997547
lowerneck -13.0581 -1.66648 0.287615
upperneck 17.8137 -2.56657 1.0505
head 7.65216 -1.10562 0.0313076
rclavicle 1.05604e-014 -4.37326e-015
rhumerus -50.6327 -4.38319 -84.3021
rradius 50.4603
rwrist 9.60299
rhand -4.02471 -37.3718
rfingers 7.12502
rthumb 21.7302 -66.1721
lclavicle 1.05604e-014 -4.37326e-015
lhumerus -42.2996 5.87857 85.7248
lradius 40.9009
lwrist -11.7641
lhand -6.3231 -25.1082
lfingers 7.12502
lthumb 19.5217 3.93179
rfemur 0 0 0
rtibia 0
rfoot 0 0
rtoes 0
lfemur -0.455743 -6.4882 -13.2439
ltibia 21.9053
lfoot -24.9525 14.1962
ltoes -54.6856
487
root -0.641651 18.6184 6.04938 -1.23446 -3.77595 -2.16074
lowerback 2.95002 1.3235 -1.1702
upperback -1.331 1.73044 0.474855
thorax -3.07098 0.890686 1.04689
lowerneck -13.1099 -1.69167 0.333652
upperneck 17.9105 -2.61167 1.03914
head 7.69273 -1.12415 0.0143047
rclavicle 1.31819e-014 -7.55382e-015
rhumerus -50.2914 -5.40369 -83.9404
rradius 47.5496
rwrist 10.9332
rhand -3.82558 -37.3535
rfingers 7.12502
rthumb 21.9214 -66.1316
lclavicle 1.31819e-014 -7.55382e-015
lhumerus -42.2064 5.49636 86.0615
lradius 41.1696
lwrist -11.4864
lhand -6.15649 -25.1099
lfingers 7.12502
lthumb 19.6819 3.91369
rfemur 0 0 0
rtibia 0
rfoot 0 0
rtoes 0
lfemur -0.31395 -6.40245 -13.3419
ltibia 21.8312
lfoot -24.9508 14.2428
ltoes -54.6893
488
root -0.64007 18.6168 6.04707 -1.3033 -3.8729 -2.10034
lowerback 2.9014 1.26745 -1.20556
upperback -1.35592 1.65486 0.481906
thorax -3.0684 0.853947 1.07906
lowerneck -12.8824 -1.61687 0.334906
upperneck 17.7187 -2.5335 1.18905
head 7.59105 -1.07561 0.0743223
rclavicle -2.91841e-014 6.75868e-015
rhumerus -50.032 -6.36186 -83.5584
rradius 45.0334
rwrist 12.2898
rhand -5.50927 -36.8506
rfingers 7.12502
rthumb 20.304 -65.8093
lclavicle -2.91841e-014 6.75868e-015
lhumerus -42.1827 5.03912 86.427
lradius 41.5232
lwrist -11.1451
lhand -6.04959 -25.0966
lfingers 7.12502
lthumb 19.7847 3.91644
rfemur 0 0 0
rtibia 0
rfoot 0 0
rtoes 0
lfemur -0.197311 -6.37141 -13.4252
ltibia 21.7727
lfoot -24.972 14.2941
ltoes -54.6655
489
root -0.638627 18.615 6.04554 -1.35561 -3.94568 -2.0635
lowerback 2.82437 1.22845 -1.19645
upperback -1.35395 1.60413 0.485382
thorax -3.02133 0.828272 1.08216
lowerneck -12.6202 -1.52957 0.35968
upperneck 17.4075 -2.43752 1.32929
head 7.44371 -1.01944 0.129381
rclavicle 1.50579e-014 1.37161e-014
rhumerus -49.7825 -7.35663 -83.1063
rradius 42.7963
rwrist 13.5028
rhand -6.57001 -36.5605
rfingers 7.12502
rthumb 19.2843 -65.6244
lclavicle 1.50579e-014 1.37161e-014
lhumerus -42.1533 4.43825 86.8647
lradius 42.005
lwrist -10.6735
lhand -5.95724 -24.9539
lfingers 7.12502
lthumb 19.8735 4.05
rfemur 0 0 0
rtibia 0
rfoot 0 0
rtoes 0
lfemur -0.102182 -6.33487 -13.4756
ltibia 21.718
lfoot -24.973 14.3012
ltoes -54.6284
490
root -0.637166 18.6137 6.04547 -1.3932 -4.02154 -2.02486
lowerback 2.71887 1.20827 -1.20996
upperback -1.34004 1.57839 0.504946
thorax -2.94774 0.81545 1.11376
lowerneck -12.5364 -1.52879 0.356383
upperneck 17.2661 -2.44561 1.39858
head 7.38372 -1.01903 0.152924
rclavicle -1.20016e-014 6.75868e-015
rhumerus -49.6413 -8.22613 -82.6161
rradius 40.8985
rwrist 14.5656
rhand -7.81469 -36.5172
rfingers 7.12502
rthumb 18.0871 -65.6962
lclavicle -1.20016e-014 6.75868e-015
lhumerus -42.1263 3.82152 87.3576
lradius 42.5294
lwrist -10.1929
lhand -5.87574 -24.8253
lfingers 7.12502
lthumb 19.9518 4.17043
rfemur 0 0 0
rtibia 0
rfoot 0 0
rtoes 0
lfemur -0.0141139 -6.28783 -13.53
ltibia 21.6607
lfoot -24.9695 14.3572
ltoes -54.6878
491
root -0.634421 18.6118 6.04559 -1.4703 -4.11518 -1.94326
lowerback 2.65822 1.19047 -1.26473
upperback -1.33682 1.55348 0.515966
thorax -2.91136 0.80399 1.15846
lowerneck -12.4036 -1.54629 0.350127
upperneck 17.1281 -2.47505 1.454
head 7.3162 -1.03072 0.170661
rclavicle 9.87711e-015 -9.54166e-015
rhumerus -49.7601 -8.71348 -82.2898
rradius 39.5977
rwrist 15.4251
rhand -8.10593 -36.9341
rfingers 7.12502
rthumb 17.8069 -66.1388
lclavicle 9.87711e-015 -9.54166e-015
lhumerus -42.1319 3.3597 87.7782
lradius 42.9944
lwrist -9.77705
lhand -5.75227 -24.8878
lfingers 7.12502
lthumb 20.0705 4.09558
rfemur 0 0 0
rtibia 0
rfoot 0 0
rtoes 0
lfemur 0.125315 -6.26063 -13.6483
ltibia 21.5946
lfoot -24.978 14.4497
ltoes -54.7678
492
root -0.631284 18.6092 6.04463 -1.59609 -4.20061 -1.85259
lowerback 2.67042 1.18043 -1.30025
upperback -1.31878 1.53816 0.49993
thorax -2.89969 0.796679 1.16266
lowerneck -12.2643 -1.53116 0.395717
upperneck 16.9356 -2.46492 1.49026
head 7.22885 -1.0225 0.177774
rclavicle -3.72721e-015 -5.1684e-015
rhumerus -50.0799 -8.81659 -82.2481
rradius 38.8381
rwrist 16.3224
rhand -6.56964 -37.9913
rfingers 7.12502
rthumb 19.2847 -67.0551
lclavicle -3.72721e-015 -5.1684e-015
lhumerus -42.1364 2.88883 88.1641
lradius 43.4759
lwrist -9.31739
lhand -5.61938 -24.9822
lfingers 7.12502
lthumb 20.1982 3.98773
rfemur 0 0 0
rtibia 0
rfoot 0 0
rtoes 0
lfemur 0.323272 -6.28096 -13.7898
ltibia 21.5095
lfoot -25.0062 14.5408
ltoes -54.7739
